<svg xmlns="http://www.w3.org/2000/svg" version="1.1" xmlns:xlink="http://www.w3.org/1999/xlink" xmlns:svgjs="http://svgjs.com/svgjs" width="1440" height="560" preserveAspectRatio="none" viewBox="0 0 1440 560"><g mask="url(&quot;#SvgjsMask1053&quot;)" fill="none"><rect width="1440" height="560" x="0" y="0" fill="rgba(28, 85, 40, 1)"></rect><path d="M0,453.758C103.915,444.789,213.8,524.984,305.771,475.79C397.868,426.529,401.457,297.047,457.617,208.987C525.745,102.16,693.264,28.244,670.704,-96.433C647.854,-222.713,467.33,-239.867,362.902,-314.457C286.663,-368.912,230.591,-453.055,139.685,-475.724C50.298,-498.014,-38.215,-456.228,-128.299,-436.948C-226.506,-415.93,-336.71,-423.301,-412.604,-357.524C-491.847,-288.844,-528.35,-181.904,-542.463,-77.994C-556.51,25.425,-524.306,125.402,-491.66,224.534C-455.285,334.987,-447.081,482.535,-341.685,531.673C-233.619,582.056,-118.792,464.011,0,453.758" fill="#15401e"></path><path d="M1440 1110.034C1543.146 1108.624 1629.756 1044.907 1722.152 999.0360000000001 1826.733 947.116 1974.929 932.4300000000001 2017.071 823.54 2059.634 713.561 1939.055 607.331 1918.702 491.173 1899.2640000000001 380.23699999999997 1966.738 252.00400000000002 1900.915 160.615 1835.0819999999999 69.21199999999999 1702.077 67.04599999999999 1592.992 38.95799999999997 1487.564 11.812000000000012 1382.6-19.644999999999982 1275.441-0.43600000000003547 1160.666 20.138000000000034 1027.709 50.84899999999999 967.9839999999999 150.99599999999998 908.179 251.277 999.94 378.8 980.602 493.948 960.51 613.59 815.76 712.437 854.384 827.442 892.102 939.75 1046.147 955.332 1152.846 1006.8199999999999 1246.345 1051.938 1336.194 1111.453 1440 1110.034" fill="#236a32"></path></g><defs><mask id="SvgjsMask1053"><rect width="1440" height="560" fill="#ffffff"></rect></mask></defs></svg>