<?xml version="1.0"?>
<svg xmlns="http://www.w3.org/2000/svg" xmlns:xlink="http://www.w3.org/1999/xlink" xmlns:svgjs="http://svgjs.com/svgjs" version="1.1" width="512" height="512" x="0" y="0" viewBox="0 0 64 64" style="enable-background:new 0 0 512 512" xml:space="preserve" class=""><g transform="matrix(1.05,0,0,1.05,-1.6000000953674416,-1.6000000000000014)"><g xmlns="http://www.w3.org/2000/svg" id="Fill_Outline" data-name="Fill Outline"><path d="m6 23h32v16h-32z" fill="#d0d8da" data-original="#d0d8da" style="" class=""/><path d="m12 28v-5h-6v16h32v-3h-18a8 8 0 0 1 -8-8z" fill="#d0d8da" data-original="#93999a" style="" class=""/><path d="m6 43h32v18h-32z" fill="#d0d8da" data-original="#d0d8da" style="" class=""/><path d="m38 46v-3h-32v18h32v-3h-18a8 8 0 0 1 -8-8v-4z" fill="#d0d8da" data-original="#93999a" style="" class=""/><path d="m3 39h38v4h-38z" fill="#fcca09" data-original="#fcbc04" style="" class=""/><path d="m12 49h4a2 2 0 0 1 2 2v10a0 0 0 0 1 0 0h-8a0 0 0 0 1 0 0v-10a2 2 0 0 1 2-2z" fill="#fcca09" data-original="#f9e109" style="" class=""/><path d="m12 50v-1a2 2 0 0 0 -2 2v10h8v-3.262a8 8 0 0 1 -6-7.738z" fill="#fcca09" data-original="#fcbc04" style="" class=""/><path d="m22 49h12v8h-12z" fill="#d0d8da" data-original="#4891d3" style="" class=""/><path d="m22 27h12v8h-12z" fill="#d0d8da" data-original="#4891d3" style="" class=""/><path d="m10 27h8v8h-8z" fill="#d0d8da" data-original="#4891d3" style="" class=""/><path d="m12 28v-1h-2v8h6.13a8 8 0 0 1 -4.13-7z" fill="#d0d8da" data-original="#2d72bc" style="" class=""/><g fill="#f9e109"><path d="m61 61h-18v-4l4-4h14z" fill="#fcca09" data-original="#f9e109" style="" class=""/><path d="m46 9h12v10h-12z" fill="#fcca09" data-original="#f9e109" style="" class=""/><path d="m41 23h-20v-4h4v-5l16 5z" fill="#fcca09" data-original="#f9e109" style="" class=""/></g><path d="m46 9v10h3v-3a4 4 0 0 1 4-4h5v-3z" fill="#fcca09" data-original="#fcbc04" style="" class=""/><path d="m47 53-4 4v4h18v-3h-9a5 5 0 0 1 -5-5z" fill="#fcca09" data-original="#fcbc04" style="" class=""/><path d="m34 55-6-6h-6v3l5 5h7z" fill="#d0d8da" data-original="#57b7eb" style="" class=""/><path d="m34 33-6-6h-6v3l5 5h7z" fill="#d0d8da" data-original="#57b7eb" style="" class=""/><path d="m18 27h-6l6 6z" fill="#d0d8da" data-original="#57b7eb" style="" class=""/><path d="m6 39h-3v4h38v-2h-33a2 2 0 0 1 -2-2z" fill="#fcca09" data-original="#e59730" style="" class=""/><path d="m30.865 19.031a5.2 5.2 0 0 1 -3.811-4.389l-2.054-.642v5h-4v4h20v-1.267z" fill="#fcca09" data-original="#fcbc04" style="" class=""/><path d="m16 49h-4a2 2 0 0 0 -2 2h4a2 2 0 0 1 2 2v8h2v-10a2 2 0 0 0 -2-2z" fill="#fcca09" data-original="#fcbc04" style="" class=""/><path d="m12 50v-1a2 2 0 0 0 -2 2h2.069a8.047 8.047 0 0 1 -.069-1z" fill="#fcca09" data-original="#e59730" style="" class=""/><path d="m16 61h2v-3.262a7.94 7.94 0 0 1 -2-.825z" fill="#fcca09" data-original="#e59730" style="" class=""/><path d="m41 42h-37v-2h37a1 1 0 0 0 0-2h-2v-14h2a1 1 0 0 0 1-1v-4a.992.992 0 0 0 -.072-.356.948.948 0 0 0 -.052-.1.937.937 0 0 0 -.135-.2.893.893 0 0 0 -.087-.087 1.012 1.012 0 0 0 -.2-.132 1.041 1.041 0 0 0 -.111-.055c-.017-.006-.031-.019-.05-.025l-16-5a1 1 0 0 0 -1.293.955v4h-3a1 1 0 0 0 -1 1v3h-1a1 1 0 0 0 0 2h18v10h-8v-6h4v3a1 1 0 0 0 2 0v-4a1 1 0 0 0 -1-1h-12a1 1 0 0 0 -1 1v7h-2v-7a1 1 0 0 0 -1-1h-8a1 1 0 0 0 -1 1v7h-2v-10h8a1 1 0 0 0 0-2h-4v-3a1 1 0 0 0 -2 0v3h-2v-3a1 1 0 0 0 -2 0v19h-2a1 1 0 0 0 -1 1v4a1 1 0 0 0 1 1h34v16h-18v-9a3 3 0 0 0 -3-3h-4a3 3 0 0 0 -3 3v9h-2v-13a1 1 0 0 0 -2 0v14a1 1 0 0 0 1 1h32a1 1 0 0 0 1-1v-17h2a1 1 0 0 0 0-2zm-1-20h-2v-2h2zm-5.553-4h-8.447v-2.64zm-12.447 2h2v2h-2zm4 0h2v2h-2zm4 0h2v2h-2zm4 0h2v2h-2zm-23 16h2v2h-2zm6 0v2h-2v-2zm12 0v2h-2v-2zm2 0h2v2h-2zm-6 2h-2v-2h2zm-4 0h-2v-2h2zm16 0h-2v-2h2zm-10-10v6h-4v-6zm-16 0h6v6h-6zm-4 8h2v2h-2zm4 24v-9a1 1 0 0 1 1-1h4a1 1 0 0 1 1 1v3h-1a1 1 0 0 0 0 2h1v4z" fill="#e91f25" data-original="#1f2d51" style="" class=""/><path d="m34 54a1 1 0 0 0 1-1v-4a1 1 0 0 0 -1-1h-12a1 1 0 0 0 -1 1v8a1 1 0 0 0 1 1h12a1 1 0 0 0 0-2h-5v-6h4v3a1 1 0 0 0 1 1zm-7 2h-4v-6h4z" fill="#e91f25" data-original="#1f2d51" style="" class=""/><path d="m61 52h-4v-32h1a1 1 0 0 0 1-1v-9h2a1 1 0 0 0 .707-1.707l-4.293-4.293h3.586a1 1 0 0 0 0-2h-48a1 1 0 0 0 -1 1v6a1 1 0 0 0 1 1h2v4.171a3 3 0 1 0 4 2.829 1 1 0 0 0 -2 0 1 1 0 1 1 -1-1 1 1 0 0 0 1-1v-5h28v9a1 1 0 0 0 1 1h9v2.586l-4 4v-3.586a1 1 0 0 0 -2 0v29h-2a1 1 0 0 0 -.707.293l-4 4a1 1 0 0 0 -.293.707v4a1 1 0 0 0 1 1h18a1 1 0 0 0 1-1v-8a1 1 0 0 0 -1-1zm-2.414-44h-7.172l3.586-3.586zm-9.586-.414-3.586-3.586h7.172zm-21.586.414 3.586-3.586 2.069 2.069a1 1 0 0 0 1.414-1.414l-1.069-1.069h7.172l-4 4zm-12 0 3.586-3.586 3.586 3.586zm6-4h7.172l-3.586 3.586zm-4.828 0-2.586 2.586v-2.586zm26.414.414 3.586 3.586h-7.172zm4 5.586h10v8h-10zm4 28.586v-7.172l3.586 3.586zm4-1.172v7.172l-3.586-3.586zm-4 6 3.586 3.586-3.586 3.586zm4 6v2.586h-2.586zm0-16.828-3.586-3.586 3.586-3.586zm5 27.414h-16v-2.586l3.414-3.414h12.586z" fill="#e91f25" data-original="#1f2d51" style="" class=""/></g></g></svg>
