<?xml version="1.0"?>
<svg xmlns="http://www.w3.org/2000/svg" xmlns:xlink="http://www.w3.org/1999/xlink" xmlns:svgjs="http://svgjs.com/svgjs" version="1.1" width="512" height="512" x="0" y="0" viewBox="0 0 464 464" style="enable-background:new 0 0 512 512" xml:space="preserve" class=""><rect width="464" height="464" fill="#ffffff" shape="square"/><g transform="matrix(0.9400000000000001,0,0,0.9400000000000001,13.920000000000044,18.597968750000177)"><path xmlns="http://www.w3.org/2000/svg" d="m176 341.265625h-168c-4.40625 0-8 3.582031-8 8v8h176zm0 0" fill="#a39d9d" data-original="#000000" style="" class=""/><path xmlns="http://www.w3.org/2000/svg" d="m16 149.265625v176h160v-160h-16v-16zm128 96h-112v-80h112zm0 0" fill="#a39d9d" data-original="#000000" style="" class=""/><path xmlns="http://www.w3.org/2000/svg" d="m191.960938 373.265625h-7.960938c-4.40625 0-8 3.582031-8 8v8h56.40625c-.238281-2.640625-.40625-5.296875-.40625-8 0-2.707031.167969-5.363281.40625-8zm0 0" fill="#a39d9d" data-original="#000000" style="" class=""/><path xmlns="http://www.w3.org/2000/svg" d="m224 229.265625h24v16h-24zm0 0" fill="#a39d9d" data-original="#000000" style="" class=""/><path xmlns="http://www.w3.org/2000/svg" d="m96 213.265625h32v16h-32zm0 0" fill="#a39d9d" data-original="#000000" style="" class=""/><path xmlns="http://www.w3.org/2000/svg" d="m96 181.265625h32v16h-32zm0 0" fill="#a39d9d" data-original="#000000" style="" class=""/><path xmlns="http://www.w3.org/2000/svg" d="m224 197.265625h24v16h-24zm0 0" fill="#a39d9d" data-original="#000000" style="" class=""/><path xmlns="http://www.w3.org/2000/svg" d="m48 181.265625h32v16h-32zm0 0" fill="#a39d9d" data-original="#000000" style="" class=""/><path xmlns="http://www.w3.org/2000/svg" d="m48 213.265625h32v16h-32zm0 0" fill="#a39d9d" data-original="#000000" style="" class=""/><path xmlns="http://www.w3.org/2000/svg" d="m160 121.6875 94.351562-84.421875h-170.230468l-68.578125 96h144.457031zm0 0" fill="#a39d9d" data-original="#000000" style="" class=""/><path xmlns="http://www.w3.org/2000/svg" d="m320 309.265625c-39.695312 0-72 32.292969-72 72 0 39.703125 32.304688 72 72 72s72-32.296875 72-72c0-39.707031-32.304688-72-72-72zm0 64c13.230469 0 24 10.765625 24 24 0 10.414063-6.710938 19.214844-16 22.527344v17.472656h-16v-17.472656c-9.289062-3.3125-16-12.113281-16-22.527344h16c0 4.414063 3.59375 8 8 8s8-3.585937 8-8c0-4.417969-3.59375-8-8-8-13.230469 0-24-10.769531-24-24 0-10.417969 6.710938-19.21875 16-22.53125v-17.46875h16v17.46875c9.289062 3.3125 16 12.113281 16 22.53125h-16c0-4.417969-3.59375-8-8-8s-8 3.582031-8 8c0 4.414063 3.59375 8 8 8zm0 0" fill="#a39d9d" data-original="#000000" style="" class=""/><path xmlns="http://www.w3.org/2000/svg" d="m336 294.792969c28.542969 5.269531 52.246094 24.335937 64 50.023437v-99.550781h-64zm0 0" fill="#a39d9d" data-original="#000000" style="" class=""/><path xmlns="http://www.w3.org/2000/svg" d="m456 373.265625h-48.40625c.238281 2.636719.40625 5.292969.40625 8 0 2.703125-.167969 5.359375-.40625 8h56.40625v-8c0-4.417969-3.59375-8-8-8zm0 0" fill="#a39d9d" data-original="#000000" style="" class=""/><path xmlns="http://www.w3.org/2000/svg" d="m264 229.265625h24v16h-24zm0 0" fill="#a39d9d" data-original="#000000" style="" class=""/><path xmlns="http://www.w3.org/2000/svg" d="m176 133.265625h288v16h-288zm0 0" fill="#a39d9d" data-original="#000000" style="" class=""/><path xmlns="http://www.w3.org/2000/svg" d="m264 197.265625h24v16h-24zm0 0" fill="#a39d9d" data-original="#000000" style="" class=""/><path xmlns="http://www.w3.org/2000/svg" d="m451.0625 117.265625-131.0625-117.265625-131.0625 117.265625zm0 0" fill="#a39d9d" data-original="#000000" style="" class=""/><path xmlns="http://www.w3.org/2000/svg" d="m320 293.265625v-64h96v128h32v-192h-256v192h43.40625c10.488281-36.882813 44.402344-64 84.59375-64zm-112-32v-80h96v80zm0 0" fill="#a39d9d" data-original="#000000" style="" class=""/></g></svg>
